G04 EasyPC Gerber Version 20.0.2 Build 4112 *
%FSLAX35Y35*%
%MOMM*%
%ADD10R,1.77800X1.77800*%
%ADD11C,1.77800*%
%ADD15C,2.03200*%
%ADD12C,2.25400*%
%ADD13R,12.25400X9.25400*%
%ADD16C,2.45400*%
%ADD14C,4.75400*%
X0Y0D02*
D02*
D10*
X1422650Y5716670D03*
X1785650Y2061670D03*
X2039650D03*
X3275650Y3491670D03*
Y3745670D03*
D02*
D11*
X245650Y1331670D03*
Y1971670D03*
X323650Y1651670D03*
X1085650D03*
X1092450Y4446670D03*
Y5462670D03*
X1261650Y1331670D03*
Y1971670D03*
X1422650Y4446670D03*
Y5462670D03*
X1676650Y5716670D03*
X1755650Y4446670D03*
Y5462670D03*
X1930650Y5716670D03*
X2083050Y4446670D03*
Y5462670D03*
X2184650Y5716670D03*
X2305650Y2061670D03*
X2413250Y4446670D03*
Y5462670D03*
X2438650Y5716670D03*
X2895850Y3024270D03*
Y3786270D03*
X3067650Y2061670D03*
X3353050Y2135270D03*
Y3151270D03*
D02*
D12*
X4356940Y3403460D03*
Y3657460D03*
Y3911460D03*
Y4165460D03*
Y4421270D03*
X6642940Y3403460D03*
Y4419460D03*
D02*
D13*
X2135700Y974450D03*
X7235700D03*
D02*
D14*
X406650Y406350D03*
Y5606350D03*
X8606350Y406350D03*
Y5606350D03*
D02*
D15*
X3022850Y4075270D03*
Y4675270D03*
Y5142070D03*
Y5742070D03*
X3472850Y4075270D03*
Y4675270D03*
Y5142070D03*
Y5742070D03*
D02*
D16*
X7806350Y3532270D03*
Y4294270D03*
X0Y0D02*
M02*
