G04 EasyPC Gerber Version 20.0.2 Build 4112 *
%FSLAX35Y35*%
%MOMM*%
%ADD22R,1.10000X1.80000*%
%ADD23R,1.52400X1.52400*%
%ADD74C,0.38100*%
%ADD72C,0.63500*%
%ADD73C,1.21920*%
%ADD24C,1.52400*%
%ADD28C,1.77800*%
%ADD25C,2.00000*%
%ADD29C,2.20000*%
%ADD26R,12.00000X9.00000*%
%ADD27C,4.50000*%
X0Y0D02*
D02*
D22*
X954830Y2627630D03*
Y4127630D03*
X1154830Y2627630D03*
Y4127630D03*
X1354830Y2627630D03*
Y4127630D03*
X1554830Y2627630D03*
Y4127630D03*
X1754830Y2627630D03*
Y4127630D03*
X1954830Y2627630D03*
Y4127630D03*
X2154830Y2627630D03*
Y4127630D03*
X2354830Y2627630D03*
Y4127630D03*
D02*
D23*
X1422650Y5716670D03*
X1785650Y2061670D03*
X2039650D03*
X3275650Y3491670D03*
Y3745670D03*
D02*
D24*
X245650Y1331670D03*
Y1971670D03*
X323650Y1651670D03*
X1085650D03*
X1092450Y4446670D03*
Y5462670D03*
X1261650Y1331670D03*
Y1971670D03*
X1422650Y4446670D03*
Y5462670D03*
X1676650Y5716670D03*
X1755650Y4446670D03*
Y5462670D03*
X1930650Y5716670D03*
X2083050Y4446670D03*
Y5462670D03*
X2184650Y5716670D03*
X2305650Y2061670D03*
X2413250Y4446670D03*
Y5462670D03*
X2438650Y5716670D03*
X2895850Y3024270D03*
Y3786270D03*
X3067650Y2061670D03*
X3353050Y2135270D03*
Y3151270D03*
D02*
D25*
X4356940Y3403460D03*
Y3657460D03*
Y3911460D03*
Y4165460D03*
Y4421270D03*
X6642940Y3403460D03*
Y4419460D03*
D02*
D26*
X2135700Y974450D03*
X7235700D03*
D02*
D27*
X406650Y406350D03*
Y5606350D03*
X8606350Y406350D03*
Y5606350D03*
D02*
D28*
X3022850Y4075270D03*
Y4675270D03*
Y5142070D03*
Y5742070D03*
X3472850Y4075270D03*
Y4675270D03*
Y5142070D03*
Y5742070D03*
D02*
D29*
X7806350Y3532270D03*
Y4294270D03*
D02*
D72*
X1785650Y2061670D02*
Y1324500D01*
X2135700Y974450*
X2305650Y2061670D02*
X2039650D01*
X2354830Y2627630D02*
X2501610D01*
X2895850Y3024270*
X2354830Y4127630D02*
X2554490D01*
X2895850Y3786270*
Y3024270D02*
X3228650D01*
X3353050Y3151270*
X3355650*
X3861840Y3657460*
X4356940*
D02*
D73*
X954830Y2401670D03*
X1554830D03*
X2795650Y5181670D03*
D02*
D74*
X245650Y1331670D02*
Y1573670D01*
X323650Y1651670*
X245650Y1971670D02*
Y1729670D01*
X323650Y1651670*
X954830Y2401670D02*
Y2627630D01*
Y4127630D02*
Y4550350D01*
X1600450Y5195970*
Y5640470*
X1676650Y5716670*
X1154830Y2627630D02*
Y2270850D01*
X1105650Y2221670*
X495650*
X245650Y1971670*
X1154830Y4127630D02*
Y4192670D01*
X1244850Y4282690*
Y4522870*
X1930650Y5208670*
Y5716670*
X1354830Y2627630D02*
Y2342490D01*
X1435650Y2261670*
X3226650*
X3353050Y2135270*
X1354830Y4127630D02*
Y4378850D01*
X1422650Y4446670*
Y5462670D02*
X1092450D01*
X1422650Y5716670D02*
Y5768670D01*
X1505650Y5851670*
X2893250*
X3002850Y5742070*
X3022850*
X1554830Y2627630D02*
Y2401670D01*
Y4127630D02*
Y4245850D01*
X1755650Y4446670*
X1754830Y4127630D02*
Y4194650D01*
X2006850Y4446670*
X2083050*
X1755650D02*
Y4474870D01*
X2159250Y4878470*
X3584450*
X3835650Y4627270*
Y4165460*
X4089650Y3911460*
X4356940*
X2083050Y4446670D02*
Y4522870D01*
X2324350Y4764170*
X2933950*
X3022850Y4675270*
X2083050Y5462670D02*
Y5274270D01*
X2175650Y5181670*
X2795650*
X2154830Y4127630D02*
Y4167270D01*
X2159250*
X2413250Y4421270*
Y4446670*
X3022850Y4075270D02*
Y4675270D01*
Y5142070D02*
Y5742070D01*
X4356940Y4165460D02*
X4079060D01*
X3975650Y4268870*
Y4624470*
X3620050Y4980070*
X1956050*
X1422650Y4446670*
X0Y0D02*
M02*
