G04 EasyPC Gerber Version 21.0.3 Build 4286 *
%FSLAX35Y35*%
%MOMM*%
%ADD130R,1.77800X1.77800*%
%ADD136R,2.03200X2.03200*%
%ADD141R,5.25400X5.25400*%
%ADD131C,1.77800*%
%ADD138C,2.03200*%
%ADD134C,2.25400*%
%ADD139C,2.45400*%
%ADD135C,2.79400*%
%ADD137C,4.75400*%
X0Y0D02*
D02*
D130*
X1507650Y7706350D03*
X2315650Y4091670D03*
X3905650Y5461670D03*
X3906350Y4281670D03*
X5698350Y7701670D03*
X7955650Y7706350D03*
D02*
D131*
X1761650D03*
X2015650D03*
X2269650D03*
X2523650D03*
X5952350Y7701670D03*
X6206350D03*
X6460350D03*
X6714350D03*
D02*
D134*
X5717840Y3835080D03*
Y6121080D03*
X5971840D03*
X6225840D03*
X6479840D03*
X6733840Y3835080D03*
X6735650Y6121080D03*
X8593790Y5601240D03*
D02*
D135*
Y4791240D03*
X12375790D03*
D02*
D136*
X7151650Y7251670D03*
X7405650D03*
X10055650Y6757670D03*
Y7011670D03*
D02*
D137*
X506350Y506350D03*
Y7506350D03*
X12506350Y506350D03*
Y7506350D03*
D02*
D138*
X2905650Y4811670D03*
Y5261670D03*
X2906350Y4031670D03*
Y4481670D03*
X3505650Y4811670D03*
Y5261670D03*
X3506350Y4031670D03*
Y4481670D03*
D02*
D139*
X6125350Y1141670D03*
X6887350D03*
X10834650Y6761670D03*
X11596650D03*
D02*
D141*
X856350Y2271670D03*
X1556350D03*
X11456350D03*
X12156350D03*
X0Y0D02*
M02*
