G04 EasyPC Gerber Version 21.0.3 Build 4286 *
%FSLAX35Y35*%
%MOMM*%
%ADD14R,1.52400X1.52400*%
%ADD117R,1.77800X1.77800*%
%ADD121R,5.00000X5.00000*%
%ADD110C,0.30000*%
%ADD72C,0.38100*%
%ADD112C,0.50000*%
%ADD127C,1.21920*%
%ADD73C,1.42240*%
%ADD114C,1.52400*%
%ADD128C,1.60000*%
%ADD119C,1.77800*%
%ADD115C,2.00000*%
%ADD120C,2.20000*%
%ADD116C,2.54000*%
%ADD118C,4.50000*%
X0Y0D02*
D02*
D14*
X1507650Y7706350D03*
X2315650Y4091670D03*
X3905650Y5461670D03*
X3906350Y4281670D03*
X5698350Y7701670D03*
X7955650Y7706350D03*
D02*
D72*
X856350Y2271670D02*
X1556350D01*
X1205650Y7011670D02*
Y4911670D01*
X1556350Y2271670D02*
X4154430D01*
X2855650Y5861670D02*
X6195840D01*
X6225840Y5891670*
Y6121080*
X2905650Y4811670D02*
X2164830D01*
X1774830Y5201670*
Y6421670*
X3105650Y5661670D02*
X6249840D01*
X6479840Y5891670*
Y6121080*
X4154430Y2271670D02*
X5717840Y3835080D01*
X5755650Y6611670D02*
X6735650D01*
X6125350Y1141670D02*
X5284430D01*
X4154430Y2271670*
X6887350Y1141670D02*
X7146450D01*
X8297250Y2271670*
X7151650Y7251670D02*
Y7264370D01*
X6714350Y7701670*
X8297250Y2271670D02*
X6733840Y3835080D01*
X11456350Y2271670D02*
X8297250D01*
X11456350D02*
X12156350D01*
D02*
D73*
X3905650Y6061670D03*
D02*
D110*
X1455650Y7461670D02*
Y4221670D01*
X1805650Y3871670*
X3935650*
X5325650Y5261670*
X10305650*
X11405650Y4161670*
X12405650*
X12605650Y4361670*
Y6311670*
X11055650Y7861670*
X1855650*
X1807530Y7813550*
G75*
G02X1761650Y7589750I-45880J-107200*
G01*
G75*
G02X1654450Y7660470J116600*
G01*
X1624250Y7630270*
Y7589770*
X1583750*
X1455650Y7461670*
X11421650Y6761670D02*
G75*
G02X11771650I175000D01*
G01*
G75*
G02X11421650I-175000*
G01*
X12183790Y4791240D02*
G75*
G02X12567790I192000D01*
G01*
G75*
G02X12183790I-192000*
G01*
X2015650Y7822950D02*
G75*
G02X2132250Y7706350J-116600D01*
G01*
G75*
G02X2015650Y7589750I-116600*
G01*
G75*
G02X1899050Y7706350J116600*
G01*
G75*
G02X2015650Y7822950I116600*
G01*
X2384170Y7728300D02*
G75*
G02X2664850Y7706350I139480J-21950D01*
G01*
G75*
G02X2384170Y7684400I-141200*
G01*
G75*
G02X2153050Y7706350I-114520J21950*
G01*
G75*
G02X2384170Y7728300I116600*
G01*
X2540650Y6931670D02*
G75*
G02X2830650I145000D01*
G01*
G75*
G02X2540650I-145000*
G01*
X2751750Y5261670D02*
G75*
G02X3059550I153900D01*
G01*
G75*
G02X2751750I-153900*
G01*
X6607750Y6178980D02*
G75*
G02X6876050Y6121080I127900J-57900D01*
G01*
G75*
G02X6607750Y6063180I-140400*
G01*
G75*
G02X6539290Y5993890I-127910J57910*
G01*
Y5891670*
G75*
G02X6521880Y5849630I-59450*
G01*
X6291880Y5619630*
G75*
G02X6249820Y5602220I-42040J42050*
G01*
X3187740*
G75*
G02X3004290Y5661670I-82090J59450*
G01*
G75*
G02X3187740Y5721120I101360*
G01*
X6225220*
X6420390Y5916300*
Y5993890*
G75*
G02X6352840Y6061220I59450J127190*
G01*
G75*
G02X6285290Y5993890I-127000J59860*
G01*
Y5891670*
G75*
G02X6267880Y5849630I-59450*
G01*
X6237880Y5819630*
G75*
G02X6195820Y5802220I-42040J42050*
G01*
X2937740*
G75*
G02X2754290Y5861670I-82090J59450*
G01*
G75*
G02X2937740Y5921120I101360*
G01*
X6166390*
Y5993890*
G75*
G02X6098840Y6061220I59450J127190*
G01*
G75*
G02X5859630Y6036690I-127000J59860*
G01*
G75*
G02X5552840Y6121080I-141790J84390*
G01*
G75*
G02X5859630Y6205470I165000*
G01*
G75*
G02X6098840Y6180940I112210J-84390*
G01*
G75*
G02X6352840I127000J-59860*
G01*
G75*
G02X6607750Y6178980I127000J-59860*
G01*
X3351750Y5261670D02*
G75*
G02X3659550I153900D01*
G01*
G75*
G02X3351750I-153900*
G01*
X3352450Y4031670D02*
G75*
G02X3660250I153900D01*
G01*
G75*
G02X3352450I-153900*
G01*
X3376350Y4811670D02*
G75*
G02X3634950I129300D01*
G01*
G75*
G02X3376350I-129300*
G01*
X3377050Y4481670D02*
G75*
G02X3635650I129300D01*
G01*
G75*
G02X3377050I-129300*
G01*
X3789050Y5578270D02*
X4022250D01*
Y5345070*
X3789050*
Y5578270*
X3789750Y4398270D02*
X4022950D01*
Y4165070*
X3789750*
Y4398270*
X2460650Y6391670D02*
G75*
G02X2750650I145000D01*
G01*
G75*
G02X2460650I-145000*
G01*
X3430650Y7550570D02*
G75*
G02X3720650I145000D01*
G01*
G75*
G02X3430650I-145000*
G01*
X3769530Y6061670D02*
G75*
G02X4041770I136120D01*
G01*
G75*
G02X3769530I-136120*
G01*
X4160650Y7011670D02*
G75*
G02X4450650I145000D01*
G01*
G75*
G02X4160650I-145000*
G01*
X5839550Y7731200D02*
G75*
G02X6068950Y7701670I112800J-29530D01*
G01*
G75*
G02X5839550Y7672140I-116600*
G01*
Y7560470*
X5557150*
Y7842870*
X5839550*
Y7731200*
X6653560Y6671120D02*
G75*
G02X6837010Y6611670I82090J-59450D01*
G01*
G75*
G02X6653560Y6552220I-101360*
G01*
X5837740*
G75*
G02X5654290Y6611670I-82090J59450*
G01*
G75*
G02X5837740Y6671120I101360*
G01*
X6653560*
X6206350Y7818270D02*
G75*
G02X6322950Y7701670J-116600D01*
G01*
G75*
G02X6206350Y7585070I-116600*
G01*
G75*
G02X6089750Y7701670J116600*
G01*
G75*
G02X6206350Y7818270I116600*
G01*
X6460350D02*
G75*
G02X6576950Y7701670J-116600D01*
G01*
G75*
G02X6460350Y7585070I-116600*
G01*
G75*
G02X6343750Y7701670J116600*
G01*
G75*
G02X6460350Y7818270I116600*
G01*
X7251750Y7405570D02*
X7559550D01*
Y7097770*
X7251750*
Y7122370*
X7022350*
Y7309600*
X6743240Y7588710*
G75*
G02X6597750Y7701670I-28890J112960*
G01*
G75*
G02X6714350Y7818270I116600*
G01*
G75*
G02X6827310Y7672780J-116600*
G01*
X7119130Y7380970*
X7251750*
Y7405570*
X7814450Y7847570D02*
X8096850D01*
Y7565170*
X7814450*
Y7847570*
X8453390Y5601240D02*
G75*
G02X8734190I140400D01*
G01*
G75*
G02X8453390I-140400*
G01*
X9280650Y7311670D02*
G75*
G02X9630650I175000D01*
G01*
G75*
G02X9280650I-175000*
G01*
X9926350Y7140970D02*
X10184950D01*
Y6628370*
X9926350*
Y7140970*
X10684250Y6761670D02*
G75*
G02X10985050I150400D01*
G01*
G75*
G02X10684250I-150400*
G01*
X2790830Y4871120D02*
G75*
G02X3034950Y4811670I114820J-59450D01*
G01*
G75*
G02X2790830Y4752220I-129300*
G01*
X2164850*
G75*
G02X2122790Y4769630I-20J59460*
G01*
X1732790Y5159630*
G75*
G02X1715380Y5201670I42040J42040*
G01*
Y6339580*
G75*
G02X1673470Y6421670I59450J82090*
G01*
G75*
G02X1876190I101360*
G01*
G75*
G02X1834280Y6339580I-101360*
G01*
Y5226300*
X2189460Y4871120*
X2790830*
X2174450Y4232870D02*
X2456850D01*
Y3950470*
X2174450*
Y4232870*
X2752450Y4031670D02*
G75*
G02X3060250I153900D01*
G01*
G75*
G02X2752450I-153900*
G01*
X2777050Y4481670D02*
G75*
G02X3035650I129300D01*
G01*
G75*
G02X2777050I-129300*
G01*
X2752450Y4031670D02*
G36*
X2456850D01*
Y3950470*
X2174450*
Y4031670*
X1645650*
X1790650Y3886670*
X2854770*
G75*
G02X2752450Y4031670I51580J145000*
G01*
G37*
X3352450D02*
G36*
X3060250D01*
G75*
G02X2957930Y3886670I-153900*
G01*
X3454770*
G75*
G02X3352450Y4031670I51580J145000*
G01*
G37*
X4095650D02*
G36*
X3660250D01*
G75*
G02X3557930Y3886670I-153900*
G01*
X3950650*
X4095650Y4031670*
G37*
G36*
X4345650Y4281670*
X4022950*
Y4165070*
X3789750*
Y4281670*
X1470650*
Y4206670*
X1645650Y4031670*
X2174450*
Y4232870*
X2456850*
Y4031670*
X2752450*
G75*
G02X3060250I153900*
G01*
X3352450*
G75*
G02X3660250I153900*
G01*
X4095650*
G37*
X12525650Y4281670D02*
G36*
X11285650D01*
X11405650Y4161670*
X12405650*
X12525650Y4281670*
G37*
X4345650D02*
G36*
X4545650Y4481670D01*
X3635650*
G75*
G02X3377050I-129300*
G01*
X3035650*
G75*
G02X2777050I-129300*
G01*
X1470650*
Y4281670*
X3789750*
Y4398270*
X4022950*
Y4281670*
X4345650*
G37*
X12590650Y4346670D02*
G36*
Y4481670D01*
X11085650*
X11285650Y4281670*
X12525650*
X12590650Y4346670*
G37*
X4545650Y4481670D02*
G36*
X4855220Y4791240D01*
X3633330*
G75*
G02X3377970I-127680J20430*
G01*
X3033330*
G75*
G02X2790830Y4752220I-127680J20430*
G01*
X2164850*
G75*
G02X2122790Y4769630I-20J59460*
G01*
X2101180Y4791240*
X1470650*
Y4481670*
X2777050*
G75*
G02X3035650I129300*
G01*
X3377050*
G75*
G02X3635650I129300*
G01*
X4545650*
G37*
X11085650D02*
G36*
X12590650D01*
Y4791240*
X12567790*
G75*
G02X12183790I-192000*
G01*
X10776080*
X11085650Y4481670*
G37*
X2101180Y4791240D02*
G36*
X1732790Y5159630D01*
G75*
G02X1715380Y5201650I42010J42020*
G01*
G75*
G02Y5201670I63660J10*
G01*
Y5261670*
X1470650*
Y4791240*
X2101180*
G37*
X4855220D02*
G36*
X5325650Y5261670D01*
X3659550*
G75*
G02X3351750I-153900*
G01*
X3059550*
G75*
G02X2751750I-153900*
G01*
X1834280*
Y5226300*
X2189460Y4871120*
X2790830*
G75*
G02X3034950Y4811670I114820J-59450*
G01*
G75*
G02X3033330Y4791240I-129310J-30*
G01*
X3377970*
G75*
G02X3376350Y4811670I127680J20400*
G01*
G75*
G02X3634950I129300*
G01*
G75*
G02X3633330Y4791240I-129300J-30*
G01*
X4855220*
G37*
X10776080D02*
G36*
X12183790D01*
G75*
G02X12567790I192000*
G01*
X12590650*
Y5261670*
X10305650*
X10776080Y4791240*
G37*
X1715380Y5461670D02*
G36*
X1470650D01*
Y5261670*
X1715380*
Y5461670*
G37*
X10305650Y5261670D02*
G36*
X12590650D01*
Y5461670*
X8609030*
G75*
G02X8578550I-15240J139540*
G01*
X4022250*
Y5345070*
X3789050*
Y5461670*
X1834280*
Y5261670*
X2751750*
G75*
G02X3059550I153900*
G01*
X3351750*
G75*
G02X3659550I153900*
G01*
X5325650*
X10305650*
G37*
X1715380Y5601240D02*
G36*
X1470650D01*
Y5461670*
X1715380*
Y5601240*
G37*
X8453390D02*
G36*
X3187020D01*
G75*
G02X3024280I-81370J60430*
G01*
X1834280*
Y5461670*
X3789050*
Y5578270*
X4022250*
Y5461670*
X8578550*
G75*
G02X8453390Y5601240I15240J139570*
G01*
G37*
X8734190D02*
G36*
G75*
G02X8609030Y5461670I-140400D01*
G01*
X12590650*
Y5601240*
X8734190*
G37*
X1715380Y5923190D02*
G36*
X1470650D01*
Y5601240*
X1715380*
Y5923190*
G37*
X6420390D02*
G36*
X6285290D01*
Y5891670*
G75*
G02Y5891650I-63660J-10*
G01*
G75*
G02X6267880Y5849630I-59420*
G01*
X6237880Y5819630*
G75*
G02X6195820Y5802220I-42040J42050*
G01*
X2937740*
G75*
G02X2754290Y5861670I-82090J59450*
G01*
G75*
G02X2775100Y5923190I101360J-10*
G01*
X1834280*
Y5601240*
X3024280*
G75*
G02X3004290Y5661670I81370J60440*
G01*
G75*
G02X3187740Y5721120I101360*
G01*
X6225220*
X6420390Y5916300*
Y5923190*
G37*
X6166390D02*
G36*
X2936200D01*
G75*
G02X2937740Y5921120I-80570J-61550*
G01*
X6166390*
Y5923190*
G37*
X6539290D02*
G36*
Y5891670D01*
G75*
G02Y5891650I-63660J-10*
G01*
G75*
G02X6521880Y5849630I-59420*
G01*
X6291880Y5619630*
G75*
G02X6249820Y5602220I-42040J42050*
G01*
X3187740*
G75*
G02X3187020Y5601240I-82210J59640*
G01*
X8453390*
G75*
G02X8734190I140400*
G01*
X12590650*
Y5923190*
X6539290*
G37*
X1715380Y6061670D02*
G36*
X1470650D01*
Y5923190*
X1715380*
Y6061670*
G37*
X5563910D02*
G36*
X4041770D01*
G75*
G02X3769530I-136120*
G01*
X1834280*
Y5923190*
X2775100*
G75*
G02X2936200I80550J-61520*
G01*
X6166390*
Y5993890*
G75*
G02X6098840Y6061220I59400J127140*
G01*
G75*
G02X5859630Y6036690I-127000J59860*
G01*
G75*
G02X5563910Y6061670I-141790J84390*
G01*
G37*
X6420390Y5923190D02*
G36*
Y5993890D01*
G75*
G02X6352840Y6061220I59400J127140*
G01*
G75*
G02X6285290Y5993890I-126950J59810*
G01*
Y5923190*
X6420390*
G37*
X6862860Y6061670D02*
G36*
G75*
G02X6608440I-127210J59410D01*
G01*
X6607060*
G75*
G02X6539290Y5993890I-127240J59450*
G01*
Y5923190*
X12590650*
Y6061670*
X6862860*
G37*
X1678010Y6391670D02*
G36*
X1470650D01*
Y6061670*
X1715380*
Y6339580*
G75*
G02X1678010Y6391670I59400J82060*
G01*
G37*
X6862860Y6061670D02*
G36*
X12590650D01*
Y6326670*
X12525650Y6391670*
X2750650*
G75*
G02X2460650I-145000*
G01*
X1871650*
G75*
G02X1834280Y6339580I-96800J30000*
G01*
Y6061670*
X3769530*
G75*
G02X4041770I136120*
G01*
X5563910*
G75*
G02X5552840Y6121080I153940J59420*
G01*
G75*
G02X5859630Y6205470I165000*
G01*
G75*
G02X6098840Y6180940I112210J-84390*
G01*
G75*
G02X6352840I127000J-59860*
G01*
G75*
G02X6607750Y6178980I127000J-59860*
G01*
G75*
G02X6876050Y6121080I127900J-57900*
G01*
G75*
G02X6862860Y6061670I-140410*
G01*
G37*
X6608440D02*
G36*
G75*
G02X6607750Y6063180I127260J59060D01*
G01*
G75*
G02X6607060Y6061670I-127950J57550*
G01*
X6608440*
G37*
X11686790Y6611670D02*
G36*
G75*
G02X11506510I-90140J150000D01*
G01*
X10845610*
G75*
G02X10823690I-10960J149980*
G01*
X6837010*
G75*
G02X6653560Y6552220I-101360*
G01*
X5837740*
G75*
G02X5654290Y6611670I-82090J59450*
G01*
X1470650*
Y6391670*
X1678010*
G75*
G02X1673470Y6421650I96780J29990*
G01*
G75*
G02Y6421670I88150J10*
G01*
G75*
G02X1876190I101360*
G01*
G75*
G02X1871650Y6391670I-101360*
G01*
X2460650*
G75*
G02X2750650I145000*
G01*
X12525650*
X12305650Y6611670*
X11686790*
G37*
X10684250Y6761670D02*
G36*
X10184950D01*
Y6628370*
X9926350*
Y6761670*
X1470650*
Y6611670*
X5654290*
G75*
G02X5837740Y6671120I101360*
G01*
X6653560*
G75*
G02X6837010Y6611670I82090J-59450*
G01*
X10823690*
G75*
G02X10684250Y6761670I10960J150000*
G01*
G37*
X11421650D02*
G36*
X10985050D01*
G75*
G02X10845610Y6611670I-150400*
G01*
X11506510*
G75*
G02X11421650Y6761670I90140J150000*
G01*
G37*
X11771650D02*
G36*
G75*
G02X11686790Y6611670I-175000D01*
G01*
X12305650*
X12155650Y6761670*
X11771650*
G37*
X9926350Y6931670D02*
G36*
X4426580D01*
G75*
G02X4184720I-120930J80000*
G01*
X2830650*
G75*
G02X2540650I-145000*
G01*
X1470650*
Y6761670*
X9926350*
Y6931670*
G37*
X11421650Y6761670D02*
G36*
G75*
G02X11555120Y6931670I175000D01*
G01*
X10184950*
Y6761670*
X10684250*
G75*
G02X10985050I150400*
G01*
X11421650*
G37*
X11771650D02*
G36*
X12155650D01*
X11985650Y6931670*
X11638180*
G75*
G02X11771650Y6761670I-41530J-170000*
G01*
G37*
X7559550Y7311670D02*
G36*
Y7097770D01*
X7251750*
Y7122370*
X7022350*
Y7309600*
X7020280Y7311670*
X1470650*
Y6931670*
X2540650*
G75*
G02X2830650I145000*
G01*
X4184720*
G75*
G02X4160650Y7011670I120930J80010*
G01*
G75*
G02X4450650I145000*
G01*
G75*
G02X4426580Y6931670I-145000J10*
G01*
X9926350*
Y7140970*
X10184950*
Y6931670*
X11555120*
G75*
G02X11638180I41530J-169990*
G01*
X11985650*
X11605650Y7311670*
X9630650*
G75*
G02X9280650I-175000*
G01*
X7559550*
G37*
X7020280D02*
G36*
X6781380Y7550570D01*
X3720650*
G75*
G02X3430650I-145000*
G01*
X1544550*
X1470650Y7476670*
Y7311670*
X7020280*
G37*
X7559550D02*
G36*
X9280650D01*
G75*
G02X9630650I175000*
G01*
X11605650*
X11366750Y7550570*
X6949520*
X7119130Y7380970*
X7251750*
Y7405570*
X7559550*
Y7311670*
G37*
X6781380Y7550570D02*
G36*
X6743240Y7588710D01*
G75*
G02X6597750Y7701660I-28900J112950*
G01*
G75*
G02Y7701670I190990J10*
G01*
G75*
G02X6597840Y7706350I116720J100*
G01*
X6576860*
G75*
G02X6576950Y7701670I-116630J-4580*
G01*
G75*
G02X6460350Y7585070I-116600*
G01*
G75*
G02X6343750Y7701670J116600*
G01*
G75*
G02X6343840Y7706350I116720J100*
G01*
X6322860*
G75*
G02X6322950Y7701670I-116630J-4580*
G01*
G75*
G02X6206350Y7585070I-116600*
G01*
G75*
G02X6089750Y7701670J116600*
G01*
G75*
G02X6089840Y7706350I116720J100*
G01*
X6068860*
G75*
G02X6068950Y7701670I-116630J-4580*
G01*
G75*
G02X5839550Y7672140I-116600*
G01*
Y7560470*
X5557150*
Y7706350*
X2664850*
G75*
G02X2384170Y7684400I-141200*
G01*
G75*
G02X2153050Y7706350I-114520J21950*
G01*
X2132250*
G75*
G02X2015650Y7589750I-116600*
G01*
G75*
G02X1899050Y7706350J116600*
G01*
X1878250*
G75*
G02X1761650Y7589750I-116600*
G01*
G75*
G02X1654450Y7660470J116610*
G01*
X1624250Y7630270*
Y7589770*
X1583750*
X1544550Y7550570*
X3430650*
G75*
G02X3720650I145000*
G01*
X6781380*
G37*
X8096850Y7706350D02*
G36*
Y7565170D01*
X7814450*
Y7706350*
X6830850*
G75*
G02X6830950Y7701680I-116470J-4830*
G01*
G75*
G02X6827310Y7672780I-116600J10*
G01*
X6949520Y7550570*
X11366750*
X11210970Y7706350*
X8096850*
G37*
Y7846670D02*
G36*
Y7706350D01*
X11210970*
X11070650Y7846670*
X8096850*
G37*
X2153050Y7706350D02*
G36*
G75*
G02X2384170Y7728300I116600D01*
G01*
G75*
G02X2507910Y7846670I139480J-21950*
G01*
X1840650*
X1807530Y7813550*
G75*
G02X1878250Y7706350I-45880J-107200*
G01*
X1899050*
G75*
G02X2015650Y7822950I116600*
G01*
G75*
G02X2132250Y7706350J-116600*
G01*
X2153050*
G37*
X7814450Y7846670D02*
G36*
X2539390D01*
G75*
G02X2664850Y7706350I-15740J-140320*
G01*
X5557150*
Y7842870*
X5839550*
Y7731200*
G75*
G02X6068860Y7706350I112800J-29530*
G01*
X6089840*
G75*
G02X6206350Y7818270I116500J-4680*
G01*
G75*
G02X6322860Y7706350I10J-116600*
G01*
X6343840*
G75*
G02X6460350Y7818270I116500J-4680*
G01*
G75*
G02X6576860Y7706350I10J-116600*
G01*
X6597840*
G75*
G02X6714350Y7818270I116500J-4680*
G01*
G75*
G02X6830850Y7706350J-116590*
G01*
X7814450*
Y7846670*
G37*
D02*
D112*
X2264450Y4091670D02*
X2164450D01*
X2315650Y4040470D02*
Y3940470D01*
Y4142870D02*
Y4242870D01*
X2366850Y4091670D02*
X2466850D01*
X2487450Y7670150D02*
X2416740Y7599440D01*
X2487450Y7742550D02*
X2416740Y7813260D01*
X2550650Y6391670D02*
X2450650D01*
X2559850Y7670150D02*
X2630560Y7599440D01*
X2559850Y7742550D02*
X2630560Y7813260D01*
X2605650Y6336670D02*
Y6236670D01*
Y6446670D02*
Y6546670D01*
X2630650Y6931670D02*
X2530650D01*
X2660650Y6391670D02*
X2760650D01*
X2685650Y6876670D02*
Y6776670D01*
Y6986670D02*
Y7086670D01*
X2740650Y6931670D02*
X2840650D01*
X2841750Y5261670D02*
X2741750D01*
X2861170Y3986490D02*
X2790460Y3915780D01*
X2861170Y4076850D02*
X2790460Y4147560D01*
X2905650Y5197770D02*
Y5097770D01*
Y5325570D02*
Y5425570D01*
X2951530Y3986490D02*
X3022240Y3915780D01*
X2951530Y4076850D02*
X3022240Y4147560D01*
X2969550Y5261670D02*
X3069550D01*
X3441750D02*
X3341750D01*
X3461170Y3986490D02*
X3390460Y3915780D01*
X3461170Y4076850D02*
X3390460Y4147560D01*
X3505650Y5197770D02*
Y5097770D01*
Y5325570D02*
Y5425570D01*
X3520650Y7550570D02*
X3420650D01*
X3551530Y3986490D02*
X3622240Y3915780D01*
X3551530Y4076850D02*
X3622240Y4147560D01*
X3569550Y5261670D02*
X3669550D01*
X3575650Y7495570D02*
Y7395570D01*
Y7605570D02*
Y7705570D01*
X3630650Y7550570D02*
X3730650D01*
X3873040Y6029060D02*
X3802330Y5958350D01*
X3873040Y6094280D02*
X3802330Y6164990D01*
X3938260Y6029060D02*
X4008970Y5958350D01*
X3938260Y6094280D02*
X4008970Y6164990D01*
X4250650Y7011670D02*
X4150650D01*
X4305650Y6956670D02*
Y6856670D01*
Y7066670D02*
Y7166670D01*
X4360650Y7011670D02*
X4460650D01*
X5647150Y7701670D02*
X5547150D01*
X5664810Y6068050D02*
X5594100Y5997340D01*
X5664810Y6174110D02*
X5594100Y6244820D01*
X5698350Y7650470D02*
Y7550470D01*
X5770870Y6068050D02*
X5841580Y5997340D01*
X5770870Y6174110D02*
X5841580Y6244820D01*
X7334430Y7180450D02*
X7241750Y7087770D01*
X7334430Y7322890D02*
X7241750Y7415570D01*
X7476870Y7180450D02*
X7569550Y7087770D01*
X7476870Y7322890D02*
X7569550Y7415570D01*
X7904450Y7706350D02*
X7804450D01*
X7955650Y7655150D02*
Y7555170D01*
X8006850Y7706350D02*
X8106850D01*
X9370650Y7311670D02*
X9270650D01*
X9455650Y7226670D02*
Y7126670D01*
Y7396670D02*
Y7496670D01*
X9540650Y7311670D02*
X9640650D01*
X11511650Y6761670D02*
X11411650D01*
X11596650Y6676670D02*
Y6576670D01*
Y6846670D02*
Y6946670D01*
X11681650Y6761670D02*
X11781650D01*
X12273790Y4791240D02*
X12173790D01*
X12375790Y4689240D02*
Y4589240D01*
Y4893240D02*
Y4993240D01*
X12477790Y4791240D02*
X12577790D01*
D02*
D114*
X1761650Y7706350D03*
X2015650D03*
X2269650D03*
X2523650D03*
X5952350Y7701670D03*
X6206350D03*
X6460350D03*
X6714350D03*
D02*
D115*
X5717840Y3835080D03*
Y6121080D03*
X5971840D03*
X6225840D03*
X6479840D03*
X6733840Y3835080D03*
X6735650Y6121080D03*
D02*
D116*
X8593790Y4791240D03*
X12375790D03*
D02*
D117*
X7151650Y7251670D03*
X7405650D03*
X10055650Y6757670D03*
Y7011670D03*
D02*
D118*
X506350Y506350D03*
Y7506350D03*
X12506350Y506350D03*
Y7506350D03*
D02*
D119*
X2905650Y4811670D03*
Y5261670D03*
X2906350Y4031670D03*
Y4481670D03*
X3505650Y4811670D03*
Y5261670D03*
X3506350Y4031670D03*
Y4481670D03*
D02*
D120*
X6125350Y1141670D03*
X6887350D03*
X9455650Y7311670D03*
X10834650Y6761670D03*
X11596650D03*
D02*
D121*
X856350Y2271670D03*
X1556350D03*
X11456350D03*
X12156350D03*
D02*
D127*
X1205650Y4911670D03*
Y7011670D03*
X1774830Y6421670D03*
X2855650Y5861670D03*
X3105650Y5661670D03*
X5755650Y6611670D03*
X6735650D03*
D02*
D128*
X2605650Y6391670D03*
X2685650Y6931670D03*
X3575650Y7550570D03*
X4305650Y7011670D03*
X0Y0D02*
M02*
