G04 EasyPC Gerber Version 20.0.2 Build 4112 *
%FSLAX35Y35*%
%MOMM*%
%ADD19C,0.12700*%
%ADD17C,0.20000*%
%ADD20C,0.25400*%
%ADD71C,0.30000*%
%ADD21C,0.30480*%
X0Y0D02*
D02*
D17*
X3605650Y929170D02*
Y1079170D01*
X3730650*
X3705650Y1004170D02*
X3605650D01*
Y929170D02*
X3730650D01*
X3805650D02*
Y1079170D01*
X3893150*
X3918150Y1066670*
X3930650Y1041670*
X3918150Y1016670*
X3893150Y1004170*
X3805650*
X3893150D02*
X3930650Y929170D01*
X4030650D02*
X4080650D01*
X4055650D02*
Y1079170D01*
X4030650Y1054170*
X4205650Y929170D02*
X4305650Y1079170D01*
X4205650*
X4405650Y941670D02*
X4430650Y929170D01*
X4468150*
X4493150Y941670*
X4505650Y966670*
Y979170*
X4493150Y1004170*
X4468150Y1016670*
X4405650*
Y1079170*
X4505650*
X4618150Y941670D02*
X4643150Y929170D01*
X4668150*
X4693150Y941670*
X4705650Y966670*
Y1041670*
X4693150Y1066670*
X4668150Y1079170*
X4643150*
X4618150Y1066670*
X4605650Y1041670*
Y966670*
X4618150Y941670*
X4693150Y1066670*
X4805650Y941670D02*
X4830650Y929170D01*
X4868150*
X4893150Y941670*
X4905650Y966670*
Y979170*
X4893150Y1004170*
X4868150Y1016670*
X4805650*
Y1079170*
X4905650*
X8397520Y1381670D02*
X8285020D01*
X8341270Y1428550*
X8285020Y1475420*
X8397520*
Y1531670D02*
X8285020Y1578550D01*
X8397520Y1625420*
X8350650Y1550420D02*
Y1606670D01*
X8378770Y1775420D02*
X8388150Y1766050D01*
X8397520Y1747300*
Y1719170*
X8388150Y1700420*
X8378770Y1691050*
X8360020Y1681670*
X8322520*
X8303770Y1691050*
X8294400Y1700420*
X8285020Y1719170*
Y1747300*
X8294400Y1766050*
X8303770Y1775420*
X8397520Y1859800D02*
Y1897300D01*
Y1878550D02*
X8285020D01*
Y1859800D02*
Y1897300D01*
X8397520Y1981670D02*
X8285020D01*
Y2075420*
X8341270Y2056670D02*
Y1981670D01*
X8397520Y2159800D02*
Y2197300D01*
Y2178550D02*
X8285020D01*
Y2159800D02*
Y2197300D01*
X8360020Y2281670D02*
X8322520D01*
X8303770Y2291050*
X8294400Y2300420*
X8285020Y2319170*
Y2337920*
X8294400Y2356670*
X8303770Y2366050*
X8322520Y2375420*
X8360020*
X8378770Y2366050*
X8388150Y2356670*
X8397520Y2337920*
Y2319170*
X8388150Y2300420*
X8378770Y2291050*
X8360020Y2281670*
X8369400Y2347300D02*
X8397520Y2375420D01*
X8285020Y2431670D02*
X8369400D01*
X8388150Y2441050*
X8397520Y2459800*
Y2497300*
X8388150Y2516050*
X8369400Y2525420*
X8285020*
X8397520Y2581670D02*
X8285020D01*
Y2675420*
X8341270Y2656670D02*
Y2581670D01*
X8397520D02*
Y2675420D01*
X8747520Y1278550D02*
X8635020D01*
X8710020Y1231670*
Y1306670*
X8738150Y1391050D02*
X8747520Y1409800D01*
Y1428550*
X8738150Y1447300*
X8719400Y1456670*
X8663150*
X8644400Y1447300*
X8635020Y1428550*
Y1409800*
X8644400Y1391050*
X8663150Y1381670*
X8719400*
X8738150Y1391050*
X8644400Y1447300*
X8738150Y1541050D02*
X8747520Y1559800D01*
Y1578550*
X8738150Y1597300*
X8719400Y1606670*
X8663150*
X8644400Y1597300*
X8635020Y1578550*
Y1559800*
X8644400Y1541050*
X8663150Y1531670*
X8719400*
X8738150Y1541050*
X8644400Y1597300*
X8635020Y1681670D02*
X8747520Y1728550D01*
X8635020Y1775420*
X8747520Y1841050D02*
X8738150Y1850420D01*
X8728770Y1841050*
X8738150Y1831670*
X8747520Y1841050*
Y1991050D02*
X8738150Y2000420D01*
X8728770Y1991050*
X8738150Y1981670*
X8747520Y1991050*
Y2141050D02*
X8738150Y2150420D01*
X8728770Y2141050*
X8738150Y2131670*
X8747520Y2141050*
X8719400Y2281670D02*
X8700650Y2291050D01*
X8691270Y2309800*
Y2328550*
X8700650Y2347300*
X8719400Y2356670*
X8738150Y2347300*
X8747520Y2328550*
Y2309800*
X8738150Y2291050*
X8719400Y2281670*
X8691270*
X8663150Y2291050*
X8644400Y2309800*
X8635020Y2328550*
X8738150Y2441050D02*
X8747520Y2459800D01*
Y2478550*
X8738150Y2497300*
X8719400Y2506670*
X8663150*
X8644400Y2497300*
X8635020Y2478550*
Y2459800*
X8644400Y2441050*
X8663150Y2431670*
X8719400*
X8738150Y2441050*
X8644400Y2497300*
X8738150Y2591050D02*
X8747520Y2609800D01*
Y2628550*
X8738150Y2647300*
X8719400Y2656670*
X8663150*
X8644400Y2647300*
X8635020Y2628550*
Y2609800*
X8644400Y2591050*
X8663150Y2581670*
X8719400*
X8738150Y2591050*
X8644400Y2647300*
X8635020Y2731670D02*
X8747520Y2778550D01*
X8635020Y2825420*
D02*
D19*
X134830Y4247630D02*
X2654830D01*
Y2507630*
X134830*
Y3324170*
X205650*
Y3399170*
X134830*
Y4247630*
X372650Y1331670D02*
X499650D01*
X372650Y1971670D02*
X499650D01*
X406650Y706350D02*
G75*
G03Y106350J-300000D01*
G01*
G75*
G03Y706350J300000*
G01*
Y5906350D02*
G75*
G03Y5306350J-300000D01*
G01*
G75*
G03Y5906350J300000*
G01*
X499650Y1204670D02*
Y1458670D01*
X1007650*
Y1204670*
X499650*
Y1844670D02*
Y2098670D01*
X1007650*
Y1844670*
X499650*
X577650Y1651670D02*
X450650D01*
X685030Y1621360D02*
X677090Y1613420D01*
X661210Y1605480*
X637400*
X621530Y1613420*
X613590Y1621360*
X605650Y1637230*
Y1668980*
X613590Y1684860*
X621530Y1692800*
X637400Y1700730*
X661210*
X677090Y1692800*
X685030Y1684860*
X748530Y1605480D02*
X780280D01*
X764400D02*
Y1700730D01*
X748530Y1684860*
X486590Y3361670D02*
X558020D01*
X573900Y3369610*
X581840Y3385480*
Y3417230*
X573900Y3433110*
X558020Y3441050*
X486590*
X581840Y3504550D02*
Y3536300D01*
Y3520420D02*
X486590D01*
X502460Y3504550*
X635650Y1275480D02*
Y1370730D01*
X691210*
X707090Y1362800*
X715030Y1346920*
X707090Y1331050*
X691210Y1323110*
X635650*
X691210D02*
X715030Y1275480D01*
X826150D02*
X762650D01*
X818210Y1331050*
X826150Y1346920*
X818210Y1362800*
X802340Y1370730*
X778530*
X762650Y1362800*
X665650Y1935480D02*
Y2030730D01*
X721210*
X737090Y2022800*
X745030Y2006920*
X737090Y1991050*
X721210Y1983110*
X665650*
X721210D02*
X745030Y1935480D01*
X808530D02*
X840280D01*
X824400D02*
Y2030730D01*
X808530Y2014860*
X831650Y1778670D02*
Y1524670D01*
X577650*
Y1778670*
X831650*
X958650Y1651670D02*
X831650D01*
X965450Y5208670D02*
X1219450D01*
Y4700670*
X965450*
Y5208670*
X1007650Y1331670D02*
X1134650D01*
X1007650Y1971670D02*
X1134650D01*
X1040060Y5061670D02*
X1135310D01*
Y5006110*
X1127380Y4990230*
X1111500Y4982290*
X1095630Y4990230*
X1087690Y5006110*
Y5061670*
Y5006110D02*
X1040060Y4982290D01*
X1048000Y4926730D02*
X1040060Y4910860D01*
Y4894980*
X1048000Y4879110*
X1063880Y4871170*
X1079750Y4879110*
X1087690Y4894980*
Y4910860*
Y4894980D02*
X1095630Y4879110D01*
X1111500Y4871170*
X1127380Y4879110*
X1135310Y4894980*
Y4910860*
X1127380Y4926730*
X1092450Y4700670D02*
Y4573670D01*
Y5335670D02*
Y5208670D01*
X1191530Y5675480D02*
X1223280D01*
X1207400D02*
Y5770730D01*
X1191530Y5754860*
X1381660Y5065870D02*
X1476910D01*
Y5010310*
X1468980Y4994430*
X1453100Y4986490*
X1437230Y4994430*
X1429290Y5010310*
Y5065870*
Y5010310D02*
X1381660Y4986490D01*
Y4899180D02*
X1476910D01*
X1413410Y4938870*
Y4875370*
X1422650Y4573670D02*
Y4700670D01*
Y5208670D02*
Y5335670D01*
X1435700Y74450D02*
X7935700D01*
Y1874450*
X1435700*
Y74450*
X1549650Y4700670D02*
X1295650D01*
Y5208670*
X1549650*
Y4700670*
X1558700Y304450D02*
X1800000D01*
X1558700Y1644450D02*
X1800000D01*
X1673000Y431450D02*
Y177450D01*
Y1771450D02*
Y1517450D01*
X1700460Y5065870D02*
X1795710D01*
Y5010310*
X1787780Y4994430*
X1771900Y4986490*
X1756030Y4994430*
X1748090Y5010310*
Y5065870*
Y5010310D02*
X1700460Y4986490D01*
X1708400Y4938870D02*
X1700460Y4922990D01*
Y4899180*
X1708400Y4883310*
X1724280Y4875370*
X1732210*
X1748090Y4883310*
X1756030Y4899180*
Y4938870*
X1795710*
Y4875370*
X1755650Y4573670D02*
Y4700670D01*
Y5208670D02*
Y5335670D01*
X1882650Y4700670D02*
X1628650D01*
Y5208670*
X1882650*
Y4700670*
X1956050Y5208670D02*
X2210050D01*
Y4700670*
X1956050*
Y5208670*
X2029460Y5061670D02*
X2124710D01*
Y5006110*
X2116780Y4990230*
X2100900Y4982290*
X2085030Y4990230*
X2077090Y5006110*
Y5061670*
Y5006110D02*
X2029460Y4982290D01*
X2053280Y4934670D02*
X2069150Y4926730D01*
X2077090Y4910860*
Y4894980*
X2069150Y4879110*
X2053280Y4871170*
X2037400Y4879110*
X2029460Y4894980*
Y4910860*
X2037400Y4926730*
X2053280Y4934670*
X2077090*
X2100900Y4926730*
X2116780Y4910860*
X2124710Y4894980*
X2083050Y4700670D02*
Y4573670D01*
Y5335670D02*
Y5208670D01*
X2286250D02*
X2540250D01*
Y4700670*
X2286250*
Y5208670*
X2369260Y5064290D02*
X2464510D01*
Y5008730*
X2456580Y4992850*
X2440700Y4984910*
X2424830Y4992850*
X2416890Y5008730*
Y5064290*
Y5008730D02*
X2369260Y4984910D01*
Y4937290D02*
X2464510Y4873790D01*
Y4937290*
X2413250Y4700670D02*
Y4573670D01*
Y5335670D02*
Y5208670D01*
X2432650Y2061670D02*
X2496150D01*
Y1934670D02*
Y2188670D01*
X2877150*
Y1934670*
X2496150*
X2559650Y2009280D02*
Y2104530D01*
X2607280*
X2623150Y2096600*
X2631090Y2088660*
X2639030Y2072780*
Y2041030*
X2631090Y2025160*
X2623150Y2017220*
X2607280Y2009280*
X2559650*
X2702530D02*
X2734280D01*
X2718400D02*
Y2104530D01*
X2702530Y2088660*
X2768850Y3532270D02*
X3022850D01*
Y3278270*
X2768850*
Y3532270*
X2865340Y3421140D02*
X2857400Y3429080D01*
X2849460Y3444960*
Y3468770*
X2857400Y3484640*
X2865340Y3492580*
X2881210Y3500520*
X2912960*
X2928840Y3492580*
X2936780Y3484640*
X2944710Y3468770*
Y3444960*
X2936780Y3429080*
X2928840Y3421140*
X2849460Y3310020D02*
Y3373520D01*
X2905030Y3317960*
X2920900Y3310020*
X2936780Y3317960*
X2944710Y3333830*
Y3357640*
X2936780Y3373520*
X2821240Y5259470D02*
X2725990D01*
Y5315030*
X2733920Y5330910*
X2749800Y5338850*
X2765670Y5330910*
X2773610Y5315030*
Y5259470*
Y5315030D02*
X2821240Y5338850D01*
Y5386470D02*
X2725990D01*
Y5465850*
X2773610Y5449970D02*
Y5386470D01*
X2821240D02*
Y5465850D01*
X2797420Y5513470D02*
X2813300Y5521410D01*
X2821240Y5537280*
Y5569030*
X2813300Y5584910*
X2797420Y5592850*
X2781550Y5584910*
X2773610Y5569030*
Y5537280*
X2765670Y5521410*
X2749800Y5513470*
X2733920Y5521410*
X2725990Y5537280*
Y5569030*
X2733920Y5584910*
X2749800Y5592850*
X2821240Y5640470D02*
X2725990D01*
Y5719850*
X2773610Y5703970D02*
Y5640470D01*
X2821240D02*
Y5719850D01*
Y5807160D02*
X2725990D01*
Y5767470D02*
Y5846850D01*
X2877150Y2061670D02*
X2940650D01*
X2859340Y4091070D02*
X2764090D01*
Y4146630*
X2772020Y4162510*
X2787900Y4170450*
X2803770Y4162510*
X2811710Y4146630*
Y4091070*
X2859340Y4218070D02*
X2764090D01*
Y4273630*
X2772020Y4289510*
X2787900Y4297450*
X2803770Y4289510*
X2811710Y4273630*
Y4218070*
Y4273630D02*
X2859340Y4297450D01*
X2827590Y4345070D02*
X2795840D01*
X2779960Y4353010*
X2772020Y4360950*
X2764090Y4376820*
Y4392700*
X2772020Y4408570*
X2779960Y4416510*
X2795840Y4424450*
X2827590*
X2843460Y4416510*
X2851400Y4408570*
X2859340Y4392700*
Y4376820*
X2851400Y4360950*
X2843460Y4353010*
X2827590Y4345070*
X2819650Y4527630D02*
Y4551450D01*
X2827590*
X2843460Y4543510*
X2851400Y4535570*
X2859340Y4519700*
Y4503820*
X2851400Y4487950*
X2843460Y4480010*
X2827590Y4472070*
X2795840*
X2779960Y4480010*
X2772020Y4487950*
X2764090Y4503820*
Y4519700*
X2772020Y4535570*
X2779960Y4543510*
X2795840Y4551450*
X2895850Y3278270D02*
Y3151270D01*
Y3659270D02*
Y3532270D01*
X3047850Y4512770D02*
Y4237770D01*
G75*
G03X3122850Y4162770I75000*
G01*
X3372850*
G75*
G03X3447850Y4237770J75000*
G01*
Y4512770*
G75*
G03X3372850Y4587770I-75000*
G01*
X3122850*
G75*
G03X3047850Y4512770J-75000*
G01*
Y5579570D02*
Y5304570D01*
G75*
G03X3122850Y5229570I75000*
G01*
X3372850*
G75*
G03X3447850Y5304570J75000*
G01*
Y5579570*
G75*
G03X3372850Y5654570I-75000*
G01*
X3122850*
G75*
G03X3047850Y5579570J-75000*
G01*
X3226050Y2897270D02*
X3480050D01*
Y2389270*
X3226050*
Y2897270*
X3299460Y2731670D02*
X3394710D01*
Y2676110*
X3386780Y2660230*
X3370900Y2652290*
X3355030Y2660230*
X3347090Y2676110*
Y2731670*
Y2676110D02*
X3299460Y2652290D01*
X3347090Y2580860D02*
Y2564980D01*
X3355030Y2549110*
X3370900Y2541170*
X3386780Y2549110*
X3394710Y2564980*
Y2580860*
X3386780Y2596730*
X3370900Y2604670*
X3355030Y2596730*
X3347090Y2580860*
X3339150Y2596730*
X3323280Y2604670*
X3307400Y2596730*
X3299460Y2580860*
Y2564980*
X3307400Y2549110*
X3323280Y2541170*
X3339150Y2549110*
X3347090Y2564980*
X3353050Y2389270D02*
Y2262270D01*
Y3024270D02*
Y2897270D01*
X3397350Y4375270D02*
G75*
G03X3097350I-150000D01*
G01*
G75*
G03X3397350I150000*
G01*
Y5442070D02*
G75*
G03X3097350I-150000D01*
G01*
G75*
G03X3397350I150000*
G01*
X4550210Y457110D02*
X4566090Y449170D01*
X4574030Y433300*
X4566090Y417420*
X4550210Y409480*
X4494650*
Y504730*
X4550210*
X4566090Y496800*
X4574030Y480920*
X4566090Y465050*
X4550210Y457110*
X4494650*
X4621650Y409480D02*
X4661340Y504730D01*
X4701030Y409480*
X4637530Y449170D02*
X4685150D01*
X4788340Y409480D02*
Y504730D01*
X4748650D02*
X4828030D01*
X4891530Y409480D02*
X4923280D01*
X4907400D02*
Y504730D01*
X4891530Y488860*
X7435700Y274450D02*
X7664300D01*
X7435700Y1674450D02*
X7664300D01*
X8606350Y706350D02*
G75*
G03Y106350J-300000D01*
G01*
G75*
G03Y706350J300000*
G01*
Y5906350D02*
G75*
G03Y5306350J-300000D01*
G01*
G75*
G03Y5906350J300000*
G01*
X8856350Y4694270D02*
Y3132270D01*
X7506350*
Y4694270*
X8856350*
D02*
D71*
X7615650Y5091670D02*
X8265650D01*
X7935650Y4781670D02*
Y5431670D01*
X7955650Y2371670D02*
Y3021670D01*
D02*
D20*
X1302500Y5600110D02*
X2572500D01*
Y5854110*
X1302500*
Y5600110*
X1658650Y1934670D02*
X2166650D01*
Y2188670*
X1658650*
Y1934670*
X2788250Y2181050D02*
Y1942290D01*
X3402650Y3364670D02*
Y3872670D01*
X3148650*
Y3364670*
X3402650*
D02*
D21*
X3706540Y5393360D02*
G75*
G02X4024040Y5710860I317500D01*
G01*
X7027140*
G75*
G02X7306540Y5431460J-279400*
G01*
Y2454960*
G75*
G02X6963640Y2112060I-342900*
G01*
X4036740*
G75*
G02X3706540Y2442260J330200*
G01*
Y5393360*
X0Y0D02*
M02*
