G04 EasyPC Gerber Version 21.0.3 Build 4286 *
%FSLAX35Y35*%
%MOMM*%
%ADD22R,1.00000X1.09000*%
%ADD113R,1.10000X1.80000*%
%ADD123R,1.70000X6.00000*%
%ADD14R,1.52400X1.52400*%
%ADD117R,1.77800X1.77800*%
%ADD121R,5.00000X5.00000*%
%ADD110C,0.30000*%
%ADD72C,0.38100*%
%ADD112C,0.50000*%
%ADD125C,0.63500*%
%ADD154C,0.80000*%
%ADD124C,1.00000*%
%ADD127C,1.21920*%
%ADD126C,1.27000*%
%ADD73C,1.42240*%
%ADD114C,1.52400*%
%ADD128C,1.60000*%
%ADD18R,1.10000X0.60000*%
%ADD21R,1.09000X1.00000*%
%ADD23R,3.00000X1.00000*%
%ADD119C,1.77800*%
%ADD115C,2.00000*%
%ADD120C,2.20000*%
%ADD122R,1.21920X1.01600*%
%ADD116C,2.54000*%
%ADD118C,4.50000*%
X0Y0D02*
D02*
D14*
X1507650Y7706350D03*
X2315650Y4091670D03*
X3905650Y5461670D03*
X3906350Y4281670D03*
X5698350Y7701670D03*
X7955650Y7706350D03*
D02*
D18*
X4175650Y7226670D03*
Y7321670D03*
Y7416670D03*
X4435650Y7226670D03*
Y7416670D03*
D02*
D21*
X2186750Y6471670D03*
Y6741670D03*
X2364550Y6471670D03*
Y6741670D03*
X4286750Y7651670D03*
X4464550D03*
D02*
D22*
X1376350Y4182770D03*
Y4360570D03*
X1576350Y4182450D03*
Y4360250D03*
X2855650Y6122770D03*
Y6300570D03*
X3105650Y6122770D03*
Y6300570D03*
X3845650Y7372770D03*
Y7550570D03*
X4755650Y7232770D03*
Y7410570D03*
D02*
D23*
X2965650Y7061670D03*
X3445650D03*
D02*
D72*
X974830Y4637630D02*
Y4840850D01*
X1045650Y4911670*
X1205650*
X974830Y6137630D02*
Y6514850D01*
X1761650Y7301670*
Y7706350*
X1174830Y6137630D02*
Y6370850D01*
X2015650Y7211670*
Y7706350*
X1205650Y4911670D02*
X1514830D01*
X1374830Y4637630D02*
Y4362090D01*
X1376350Y4360570*
X1374830Y6137630D02*
Y5972490D01*
X1685650Y5661670*
X3105650*
X1507650Y7706350D02*
Y7313670D01*
X1205650Y7011670*
X1514830Y4911670D02*
X1574830Y4851670D01*
Y4637630*
X1576350Y4360250D02*
X2784930D01*
X2906350Y4481670*
X1576350Y4360250D02*
Y4636110D01*
X1574830Y4637630*
X1774830Y6137630D02*
Y6421670D01*
Y6661670*
X2035400Y6922240*
X2269650Y7156490*
Y7706350*
X2174830Y4637630D02*
Y5230850D01*
X2405650Y5461670*
X3655650*
X2174830Y6137630D02*
Y6233590D01*
X2186750Y6245510*
Y6471670*
Y6741670D02*
Y6770890D01*
X2035400Y6922240*
X2855650Y5861670D02*
Y6122770D01*
Y5861670D02*
X1795650D01*
X1574830Y6082490*
Y6137630*
X2905650Y4811670D02*
X3505650D01*
X2906350Y4481670D02*
X3506350D01*
X3105650Y5661670D02*
Y6122770D01*
X3655650Y5461670D02*
X3905650D01*
X3896430Y6310070D02*
Y6070890D01*
X3905650Y6061670*
X3896430Y6513270D02*
X3757250D01*
X3655650Y6411670*
Y5461670*
X4117410Y6411670D02*
X4135650D01*
X4435650Y6711670*
Y7226670*
X4749550*
X4755650Y7232770*
X4834550*
X5455650Y6611670*
X5755650*
X6225840Y6121080D02*
Y7682180D01*
X6206350Y7701670*
X6479840Y6121080D02*
Y7682180D01*
X6460350Y7701670*
X6735650Y6121080D02*
Y6611670D01*
Y7680370*
X6714350Y7701670*
D02*
D73*
X3905650Y6061670D03*
D02*
D110*
X1834280Y6590300D02*
Y6503760D01*
G75*
G02Y6339580I-59450J-82090*
G01*
Y6268070*
X1870250*
Y6007270*
X1734130*
X1820280Y5921120*
X2773560*
G75*
G02X2796200Y5943760I82080J-59440*
G01*
Y6027870*
X2765250*
Y6181070*
X2740650*
Y6420070*
X2970650*
Y6181070*
X2946050*
Y6027870*
X2915100*
Y5943760*
G75*
G02X2957010Y5861670I-59450J-82090*
G01*
G75*
G02X2773560Y5802220I-101360*
G01*
X1795670*
G75*
G02X1753610Y5819630I-20J59460*
G01*
X1565980Y6007270*
X1479450*
Y6235470*
X1470250Y6226270*
Y6007270*
X1434280*
Y5997120*
X1710280Y5721120*
X3023560*
G75*
G02X3046200Y5743760I82080J-59440*
G01*
Y6027870*
X3015250*
Y6181070*
X2990650*
Y6420070*
X3220650*
Y6181070*
X3196050*
Y6027870*
X3165100*
Y5743760*
G75*
G02X3207010Y5661670I-59450J-82090*
G01*
G75*
G02X3023560Y5602220I-101360*
G01*
X1685670*
G75*
G02X1643610Y5619630I-20J59460*
G01*
X1332790Y5930450*
G75*
G02X1315380Y5972490I42040J42040*
G01*
Y6007270*
X1279450*
Y6035470*
X1270250Y6026270*
Y6007270*
X1251250*
X1155650Y5911670*
Y4999840*
G75*
G02X1287740Y4971120I50000J-88170*
G01*
X1514830*
G75*
G02X1556870Y4953710I10J-59450*
G01*
X1616870Y4893710*
G75*
G02X1634280Y4851670I-42040J-42040*
G01*
Y4768070*
X1670250*
Y4507270*
X1639800*
Y4455170*
X1666750*
Y4419700*
X2760310*
X2783120Y4442520*
G75*
G02X3021170Y4541120I123230J39150*
G01*
X3391530*
G75*
G02X3635650Y4481670I114820J-59450*
G01*
G75*
G02X3391530Y4422220I-129300*
G01*
X3021170*
G75*
G02X2867200Y4358440I-114820J59450*
G01*
X2826970Y4318210*
G75*
G02X2784910Y4300800I-42040J42050*
G01*
X1691350*
Y4062970*
X1461350*
Y4063270*
X1261350*
Y4302270*
X1285950*
Y4455470*
X1311380*
Y4507270*
X1279450*
Y4768070*
X1470250*
Y4507270*
X1438280*
Y4455470*
X1466750*
Y4302270*
X1485950*
Y4455170*
X1512900*
Y4507270*
X1479450*
Y4768070*
X1515380*
Y4827050*
X1490210Y4852220*
X1287740*
G75*
G02X1155650Y4823500I-82090J59450*
G01*
Y4768070*
X1270250*
Y4507270*
X1155650*
Y4011670*
X1255650Y3911670*
X2858200*
G75*
G02X2777050Y4031670I48150J120000*
G01*
G75*
G02X3035650I129300*
G01*
G75*
G02X2954500Y3911670I-129300*
G01*
X3458200*
G75*
G02X3377050Y4031670I48150J120000*
G01*
G75*
G02X3635650I129300*
G01*
G75*
G02X3554500Y3911670I-129300*
G01*
X3805650*
X4034450Y4140470*
X3765150*
Y4422870*
X4047550*
Y4153570*
X4105650Y4211670*
Y6320470*
X4016050*
Y6502870*
X4105650*
Y6691670*
X3705650Y7091670*
X3660650*
Y6946670*
X3230650*
Y7091670*
X3156050*
Y6971270*
X2799350*
G75*
G02X2806050Y6931670I-113700J-39600*
G01*
G75*
G02X2565250I-120400*
G01*
G75*
G02X2613500Y7028060I120400*
G01*
Y7051670*
G75*
G02X2625600Y7091670I72150*
G01*
X2335650*
X2142850Y6898870*
X2209650Y6832070*
X2245050*
Y6856670*
X2484050*
Y6626670*
X2245050*
Y6651270*
X2091850*
Y6781720*
X2058770Y6814790*
X1834280Y6590300*
X2485250Y6391670D02*
G75*
G02X2726050I120400D01*
G01*
G75*
G02X2588510Y6272500I-120400*
G01*
X2470250Y6154230*
Y6007270*
X2279450*
Y6268070*
X2302680*
Y6381270*
X2246200*
Y6268070*
X2270250*
Y6007270*
X2079450*
Y6268070*
X2126400*
G75*
G02X2127300Y6269300I48450J-34510*
G01*
Y6381270*
X2091850*
Y6562070*
X2459450*
Y6381270*
X2446980*
Y6335040*
X2486480Y6374530*
G75*
G02X2485250Y6391670I119190J17170*
G01*
X1879450Y6268070D02*
X2070250D01*
Y6007270*
X1879450*
Y6268070*
Y4768070D02*
X2070250D01*
Y4507270*
X1879450*
Y4768070*
X3789050Y5578270D02*
X4022250D01*
Y5345070*
X3789050*
Y5402220*
X2430280*
X2234280Y5206230*
Y4768070*
X2254850*
Y4792670*
X2494850*
Y4482670*
X2254850*
Y4507270*
X2079450*
Y4768070*
X2115380*
Y5230850*
G75*
G02X2132790Y5272890I59450*
G01*
X2363610Y5503710*
G75*
G02X2405670Y5521120I42040J-42050*
G01*
X3596200*
Y6411670*
G75*
G02X3613610Y6453710I59450*
G01*
X3715210Y6555310*
G75*
G02X3757270Y6572720I42040J-42050*
G01*
X3795050*
Y6604470*
X3997750*
Y6422070*
X3795050*
Y6453820*
X3781880*
X3715100Y6387050*
Y5521120*
X3789050*
Y5578270*
X3955880Y6161240D02*
G75*
G02X4017170Y6061670I-50230J-99570D01*
G01*
G75*
G02X3794130I-111520*
G01*
G75*
G02X3836980Y6149540I111520*
G01*
Y6218870*
X3795050*
Y6401270*
X3997750*
Y6218870*
X3955880*
Y6161240*
X3390830Y4871120D02*
G75*
G02X3634950Y4811670I114820J-59450D01*
G01*
G75*
G02X3390830Y4752220I-129300*
G01*
X3020470*
G75*
G02X2776350Y4811670I-114820J59450*
G01*
G75*
G02X3020470Y4871120I129300*
G01*
X3390830*
X2776350Y5261670D02*
G75*
G02X3034950I129300D01*
G01*
G75*
G02X2776350I-129300*
G01*
X3376350D02*
G75*
G02X3634950I129300D01*
G01*
G75*
G02X3376350I-129300*
G01*
X1679450Y4768070D02*
X1870250D01*
Y4507270*
X1679450*
Y4768070*
X2199050Y4208270D02*
X2432250D01*
Y3975070*
X2199050*
Y4208270*
X2791810Y4091670D02*
G36*
X2432250D01*
Y3975070*
X2199050*
Y4091670*
X1691350*
Y4062970*
X1461350*
Y4063270*
X1261350*
Y4091670*
X1170650*
Y3996670*
X1240650Y3926670*
X2830890*
G75*
G02X2777050Y4031670I75460J105000*
G01*
G75*
G02X2791810Y4091670I129300J10*
G01*
G37*
X3391810D02*
G36*
X3020890D01*
G75*
G02X3035650Y4031670I-114540J-59990*
G01*
G75*
G02X2981810Y3926670I-129300*
G01*
X3430890*
G75*
G02X3377050Y4031670I75460J105000*
G01*
G75*
G02X3391810Y4091670I129300J10*
G01*
G37*
X3985650D02*
G36*
X3620890D01*
G75*
G02X3635650Y4031670I-114540J-59990*
G01*
G75*
G02X3581810Y3926670I-129300*
G01*
X3820650*
X3985650Y4091670*
G37*
X1261350D02*
G36*
Y4302270D01*
X1285950*
Y4455470*
X1311380*
Y4507270*
X1279450*
Y4637670*
X1270250*
Y4507270*
X1170650*
Y4091670*
X1261350*
G37*
X1479450Y4637670D02*
G36*
X1470250D01*
Y4507270*
X1438280*
Y4455470*
X1466750*
Y4302270*
X1485950*
Y4455170*
X1512900*
Y4507270*
X1479450*
Y4637670*
G37*
X4090650Y4196670D02*
G36*
Y4637670D01*
X2494850*
Y4482670*
X2254850*
Y4507270*
X2079450*
Y4637670*
X2070250*
Y4507270*
X1879450*
Y4637670*
X1870250*
Y4507270*
X1679450*
Y4637670*
X1670250*
Y4507270*
X1639800*
Y4455170*
X1666750*
Y4419700*
X2760310*
X2783120Y4442520*
G75*
G02X2777050Y4481670I123220J39150*
G01*
G75*
G02X3021170Y4541120I129300*
G01*
X3391530*
G75*
G02X3635650Y4481670I114820J-59450*
G01*
G75*
G02X3391530Y4422220I-129300*
G01*
X3021170*
G75*
G02X2867200Y4358440I-114820J59440*
G01*
X2826970Y4318210*
G75*
G02X2784910Y4300800I-42040J42050*
G01*
X1691350*
Y4091670*
X2199050*
Y4208270*
X2432250*
Y4091670*
X2791810*
G75*
G02X3020890I114540J-60000*
G01*
X3391810*
G75*
G02X3620890I114540J-60000*
G01*
X3985650*
X4034450Y4140470*
X3765150*
Y4422870*
X4047550*
Y4153570*
X4090650Y4196670*
G37*
X1479450Y4637670D02*
G36*
Y4768070D01*
X1515380*
Y4811670*
X1222220*
G75*
G02X1189080I-16570J100000*
G01*
X1170650*
Y4768070*
X1270250*
Y4637670*
X1279450*
Y4768070*
X1470250*
Y4637670*
X1479450*
G37*
X2079450D02*
G36*
Y4768070D01*
X2115380*
Y4811670*
X1634280*
Y4768070*
X1670250*
Y4637670*
X1679450*
Y4768070*
X1870250*
Y4637670*
X1879450*
Y4768070*
X2070250*
Y4637670*
X2079450*
G37*
X3634950Y4811670D02*
G36*
G75*
G02X3390830Y4752220I-129300D01*
G01*
X3020470*
G75*
G02X2776350Y4811670I-114820J59450*
G01*
X2234280*
Y4768070*
X2254850*
Y4792670*
X2494850*
Y4637670*
X4090650*
Y4811670*
X3634950*
G37*
X1189080D02*
G36*
G75*
G02X1170650Y4816540I16560J99960D01*
G01*
Y4811670*
X1189080*
G37*
X2123990Y5261670D02*
G36*
X1170650D01*
Y5006800*
G75*
G02X1287740Y4971120I35000J-95110*
G01*
X1514830*
G75*
G02X1556870Y4953710I20J-59420*
G01*
X1616870Y4893710*
G75*
G02X1634280Y4851690I-42010J-42020*
G01*
G75*
G02Y4851670I-63660J-10*
G01*
Y4811670*
X2115380*
Y5230850*
G75*
G02Y5230870I63660J10*
G01*
G75*
G02X2123990Y5261670I59420J-10*
G01*
G37*
X1515380Y4811670D02*
G36*
Y4827050D01*
X1490210Y4852220*
X1287740*
G75*
G02X1222220Y4811670I-82090J59430*
G01*
X1515380*
G37*
X2289720Y5261670D02*
G36*
X2234280Y5206230D01*
Y4811670*
X2776350*
G75*
G02X3020470Y4871120I129300*
G01*
X3390830*
G75*
G02X3634950Y4811670I114820J-59450*
G01*
X4090650*
Y5261670*
X3634950*
G75*
G02X3376350I-129300*
G01*
X3034950*
G75*
G02X2776350I-129300*
G01*
X2289720*
G37*
X3596200Y6137670D02*
G36*
X3196050D01*
Y6027870*
X3165100*
Y5743760*
G75*
G02X3207010Y5661690I-59400J-82070*
G01*
G75*
G02Y5661670I-88150J-10*
G01*
G75*
G02X3023560Y5602220I-101360*
G01*
X1685670*
G75*
G02X1643610Y5619630I-20J59460*
G01*
X1332790Y5930450*
G75*
G02X1315380Y5972470I42010J42020*
G01*
G75*
G02Y5972490I63660J10*
G01*
Y6007270*
X1279450*
Y6035470*
X1270250Y6026270*
Y6007270*
X1251250*
X1170650Y5926670*
Y5261670*
X2123990*
G75*
G02X2132790Y5272890I50810J-30790*
G01*
X2363610Y5503710*
G75*
G02X2405670Y5521120I42040J-42050*
G01*
X3596200*
Y6137670*
G37*
X2765250D02*
G36*
X2470250D01*
Y6007270*
X2279450*
Y6137670*
X2270250*
Y6007270*
X2079450*
Y6137670*
X2070250*
Y6007270*
X1879450*
Y6137670*
X1870250*
Y6007270*
X1734130*
X1820280Y5921120*
X2773560*
G75*
G02X2796200Y5943760I82060J-59420*
G01*
Y6027870*
X2765250*
Y6137670*
G37*
X3015250D02*
G36*
X2946050D01*
Y6027870*
X2915100*
Y5943760*
G75*
G02X2957010Y5861690I-59400J-82070*
G01*
G75*
G02Y5861670I-88150J-10*
G01*
G75*
G02X2773560Y5802220I-101360*
G01*
X1795670*
G75*
G02X1753610Y5819630I-20J59460*
G01*
X1565980Y6007270*
X1479450*
Y6137670*
X1470250*
Y6007270*
X1434280*
Y5997120*
X1710280Y5721120*
X3023560*
G75*
G02X3046200Y5743760I82060J-59420*
G01*
Y6027870*
X3015250*
Y6137670*
G37*
X3987260D02*
G36*
G75*
G02X4017170Y6061670I-81620J-76010D01*
G01*
G75*
G02X3794130I-111520*
G01*
G75*
G02Y6061680I95490J10*
G01*
G75*
G02X3824030Y6137670I111500J10*
G01*
X3715100*
Y5521120*
X3789050*
Y5578270*
X4022250*
Y5345070*
X3789050*
Y5402220*
X2430280*
X2289720Y5261670*
X2776350*
G75*
G02X3034950I129300*
G01*
X3376350*
G75*
G02X3634950I129300*
G01*
X4090650*
Y6137670*
X3987260*
G37*
X1479450D02*
G36*
Y6235470D01*
X1470250Y6226270*
Y6137670*
X1479450*
G37*
X2079450D02*
G36*
Y6268070D01*
X2126400*
G75*
G02X2127300Y6269300I79900J-57520*
G01*
Y6284670*
X1834280*
Y6268070*
X1870250*
Y6137670*
X1879450*
Y6268070*
X2070250*
Y6137670*
X2079450*
G37*
X2302680Y6284670D02*
G36*
X2246200D01*
Y6268070*
X2270250*
Y6137670*
X2279450*
Y6268070*
X2302680*
Y6284670*
G37*
X2740650D02*
G36*
X2660840D01*
G75*
G02X2588510Y6272500I-55190J107010*
G01*
X2470250Y6154230*
Y6137670*
X2765250*
Y6181070*
X2740650*
Y6284670*
G37*
X2990650D02*
G36*
X2970650D01*
Y6181070*
X2946050*
Y6137670*
X3015250*
Y6181070*
X2990650*
Y6284670*
G37*
X3596200D02*
G36*
X3220650D01*
Y6181070*
X3196050*
Y6137670*
X3596200*
Y6284670*
G37*
X3795050D02*
G36*
X3715100D01*
Y6137670*
X3824030*
G75*
G02X3836980Y6149540I81600J-76030*
G01*
Y6218870*
X3795050*
Y6284670*
G37*
X3997750D02*
G36*
Y6218870D01*
X3955880*
Y6161240*
G75*
G02X3987260Y6137670I-50240J-99560*
G01*
X4090650*
Y6284670*
X3997750*
G37*
X2302680D02*
G36*
Y6381270D01*
X2246200*
Y6284670*
X2302680*
G37*
X4090650Y6320470D02*
G36*
X4016050D01*
Y6502870*
X4090650*
Y6706670*
X3720650Y7076670*
X3660650*
Y6946670*
X3230650*
Y7076670*
X3156050*
Y6971270*
X2799350*
G75*
G02X2806050Y6931670I-113920J-39640*
G01*
G75*
G02X2565250I-120400*
G01*
G75*
G02X2613500Y7028060I120420J-10*
G01*
Y7051670*
G75*
G02X2617970Y7076670I72180J-10*
G01*
X2320650*
X2142850Y6898870*
X2209650Y6832070*
X2245050*
Y6856670*
X2484050*
Y6626670*
X2245050*
Y6651270*
X2091850*
Y6781720*
X2058770Y6814790*
X1834280Y6590300*
Y6503760*
G75*
G02X1876190Y6421670I-59440J-82090*
G01*
G75*
G02X1834280Y6339580I-101350*
G01*
Y6284670*
X2127300*
Y6381270*
X2091850*
Y6562070*
X2459450*
Y6381270*
X2446980*
Y6335040*
X2486480Y6374530*
G75*
G02X2485250Y6391670I119690J17200*
G01*
G75*
G02X2726050I120400*
G01*
G75*
G02X2660840Y6284670I-120410J10*
G01*
X2740650*
Y6420070*
X2970650*
Y6284670*
X2990650*
Y6420070*
X3220650*
Y6284670*
X3596200*
Y6411670*
G75*
G02Y6411690I63660J10*
G01*
G75*
G02X3613610Y6453710I59420*
G01*
X3715210Y6555310*
G75*
G02X3757270Y6572720I42040J-42050*
G01*
X3795050*
Y6604470*
X3997750*
Y6422070*
X3795050*
Y6453820*
X3781880*
X3715100Y6387050*
Y6284670*
X3795050*
Y6401270*
X3997750*
Y6284670*
X4090650*
Y6320470*
G37*
D02*
D112*
X1344030Y4150450D02*
X1251350Y4057770D01*
X1344030Y4215090D02*
X1251350Y4307770D01*
X1408670Y4150450D02*
X1501350Y4057770D01*
X1576350Y4152950D02*
Y4052970D01*
X1601350Y4182450D02*
X1701350D01*
X2332230Y6709350D02*
X2239550Y6616670D01*
X2332230Y6773990D02*
X2239550Y6866670D01*
X2374830Y4572630D02*
Y4472670D01*
Y4702630D02*
Y4802670D01*
X2396870Y6709350D02*
X2489550Y6616670D01*
X2396870Y6773990D02*
X2489550Y6866670D01*
X2404830Y4637630D02*
X2504850D01*
X2830650Y6300570D02*
X2730650D01*
X2855650Y6330070D02*
Y6430070D01*
X2880650Y6300570D02*
X2980650D01*
X3073330Y6268250D02*
X2980650Y6175570D01*
X3073330Y6332890D02*
X2980650Y6425570D01*
X3137970Y6268250D02*
X3230650Y6175570D01*
X3137970Y6332890D02*
X3230650Y6425570D01*
X3320650Y7061670D02*
X3220650D01*
X3445650Y7036670D02*
Y6936670D01*
X3570650Y7061670D02*
X3670650D01*
X3855150Y4281670D02*
X3755150D01*
X3906350Y4230470D02*
Y4130470D01*
Y4332870D02*
Y4432870D01*
X3957550Y4281670D02*
X4057550D01*
D02*
D113*
X974830Y4637630D03*
Y6137630D03*
X1174830Y4637630D03*
Y6137630D03*
X1374830Y4637630D03*
Y6137630D03*
X1574830Y4637630D03*
Y6137630D03*
X1774830Y4637630D03*
Y6137630D03*
X1974830Y4637630D03*
Y6137630D03*
X2174830Y4637630D03*
Y6137630D03*
X2374830Y4637630D03*
Y6137630D03*
D02*
D114*
X1761650Y7706350D03*
X2015650D03*
X2269650D03*
X2523650D03*
X5952350Y7701670D03*
X6206350D03*
X6460350D03*
X6714350D03*
D02*
D115*
X5717840Y3835080D03*
Y6121080D03*
X5971840D03*
X6225840D03*
X6479840D03*
X6733840Y3835080D03*
X6735650Y6121080D03*
D02*
D116*
X8593790Y4791240D03*
X12375790D03*
D02*
D117*
X7151650Y7251670D03*
X7405650D03*
X10055650Y6757670D03*
Y7011670D03*
D02*
D118*
X506350Y506350D03*
Y7506350D03*
X12506350Y506350D03*
Y7506350D03*
D02*
D119*
X2905650Y4811670D03*
Y5261670D03*
X2906350Y4031670D03*
Y4481670D03*
X3505650Y4811670D03*
Y5261670D03*
X3506350Y4031670D03*
Y4481670D03*
D02*
D120*
X6125350Y1141670D03*
X6887350D03*
X9455650Y7311670D03*
X10834650Y6761670D03*
X11596650D03*
D02*
D121*
X856350Y2271670D03*
X1556350D03*
X11456350D03*
X12156350D03*
D02*
D122*
X3896430Y6310070D03*
Y6513270D03*
X4117410Y6411670D03*
D02*
D123*
X9005650Y6341670D03*
Y7381670D03*
D02*
D124*
X4755650Y7410570D02*
X4956750D01*
X5455650Y6911670*
X5971840*
Y6121080D02*
Y5845480D01*
Y6121080D02*
Y6911670D01*
X10834650Y6361670D02*
Y6761670D01*
D02*
D125*
X2374830Y6137630D02*
Y6160850D01*
X2605650Y6391670*
X2374830Y6137630D02*
Y6461390D01*
X2364550Y6471670*
X2965650Y7061670D02*
Y7051670D01*
X2685650*
Y6931670*
X3445650Y7061670D02*
Y7251670D01*
X3566750Y7372770*
X3845650*
Y7550570D02*
X3575650D01*
X4175650Y7321670D02*
X4304250D01*
X4305650Y7323070*
X4175650Y7416670D02*
X3889550D01*
X3845650Y7372770*
X4286750Y7651670D02*
X4305650Y7632770D01*
Y7323070*
Y7321670*
Y7011670*
X4435650Y7416670D02*
Y7622770D01*
X4464550Y7651670*
X4435650Y7416670D02*
X4749550D01*
X4755650Y7410570*
X5971840Y6911670D02*
Y7682180D01*
X5952350Y7701670*
D02*
D126*
X5971840Y5845480D02*
X6055650Y5761670D01*
X7845650*
X8425650Y6341670*
X9005650*
X8593790Y4791240D02*
X9004220D01*
X9264220*
X10834650Y6361670*
X9005650Y7381670D02*
X9385650D01*
X9455650Y7311670*
D02*
D127*
X1205650Y4911670D03*
Y7011670D03*
X1774830Y6421670D03*
X2855650Y5861670D03*
X3105650Y5661670D03*
X5755650Y6611670D03*
X6735650D03*
D02*
D128*
X2605650Y6391670D03*
X2685650Y6931670D03*
X3575650Y7550570D03*
X4305650Y7011670D03*
D02*
D154*
X9005650Y6341670D02*
X9735650D01*
X10055650Y6661670*
Y6757670*
Y7011670D02*
X10584650D01*
X10834650Y6761670*
X0Y0D02*
M02*
